<?xml version="1.0" encoding="UTF-8" standalone="no"?>
<svg
   xmlns:dc="http://purl.org/dc/elements/1.1/"
   xmlns:cc="http://creativecommons.org/ns#"
   xmlns:rdf="http://www.w3.org/1999/02/22-rdf-syntax-ns#"
   xmlns:svg="http://www.w3.org/2000/svg"
   xmlns="http://www.w3.org/2000/svg"
   id="svg8"
   version="1.1"
   viewBox="0 0 137 128"
   height="128mm"
   width="137mm">
  <defs
     id="defs2" />
  <metadata
     id="metadata5">
    <rdf:RDF>
      <cc:Work
         rdf:about="">
        <dc:format>image/svg+xml</dc:format>
        <dc:type
           rdf:resource="http://purl.org/dc/dcmitype/StillImage" />
        <dc:title></dc:title>
      </cc:Work>
    </rdf:RDF>
  </metadata>
  <g
     id="layer1">
    <path
       id="path24"
       d="m 40.329253,127.05252 c -3.747021,-1.35666 -3.892344,-1.50154 -22.405832,-22.33744 L 0.69721037,85.327951 v -4.22765 -4.22765 L 17.585455,57.878921 c 9.288537,-10.44655 17.29549,-19.38104 17.79323,-19.85442 0.497742,-0.47339 2.024893,-1.42112 3.393672,-2.10607 2.317094,-1.15951 2.627223,-1.245 4.497917,-1.2399 1.51851,0.004 2.332326,0.15262 3.332144,0.60797 1.725695,0.78593 3.388897,2.43756 4.151813,4.12291 0.596421,1.31754 0.612521,1.57302 0.689133,10.93529 l 0.07845,9.58623 19.81217,0.0711 c 19.54147,0.0701 19.82214,0.0785 20.5427,0.61658 0.40179,0.30003 0.97602,0.87413 1.27605,1.27578 0.52581,0.70389 0.5503,1.1382 0.67781,12.0222 l 0.13229,11.29192 16.884006,-18.98386 16.884,-18.98385 -16.884,-18.98386 L 93.962834,9.2730909 93.803054,20.264141 c -0.17674,12.15764 -0.20054,12.32537 -1.92336,13.55426 -0.8147,0.58114 -0.97525,0.59125 -10.5642,0.6656 -9.5484,0.074 -9.75654,0.0645 -10.75058,-0.49421 -2.73738,-1.5385 -2.83041,-5.25809 -0.18102,-7.23785 0.68788,-0.51402 1.14071,-0.55024 7.84261,-0.62736 l 7.11257,-0.0818 0.0785,-9.44316 c 0.0771,-9.2707905 0.0899,-9.4683405 0.70232,-10.8226305 0.74329,-1.6438 2.73528,-3.59328 4.47812,-4.38254 1.78754,-0.80951005 4.19974,-0.78162005 6.35453,0.0735 3.580316,1.42078 4.020216,1.86333 22.139276,22.2721405 l 17.072,19.22943 v 4.26977 4.26977 l -17.06597,19.231 c -14.70074,16.56572 -17.33885,19.41825 -19.03486,20.58202 -2.568676,1.76258 -5.163636,2.62173 -7.196856,2.38277 -3.07085,-0.36092 -5.52484,-2.10001 -6.76205,-4.79212 -0.59322,-1.29083 -0.60994,-1.5555 -0.68921,-10.91406 l -0.0812,-9.59115 h -19.45793 c -21.654774,0 -20.556428,0.09 -22.000241,-1.8022 l -0.712668,-0.93398 -0.132292,-11.25279 -0.132292,-11.2528 -16.875937,18.9644 -16.8759345,18.96441 16.8759345,18.980019 16.875937,18.98002 0.132292,-11.2816 c 0.127508,-10.873569 0.152022,-11.308019 0.677807,-12.011879 0.300032,-0.40165 0.87431,-0.97576 1.276173,-1.27579 0.707451,-0.52819 1.044572,-0.54551 10.613731,-0.54551 9.61342,0 9.90345,0.0151 10.63007,0.55349 2.5975,1.92462 2.59784,5.168861 8e-4,7.095099 -0.70044,0.51951 -1.17156,0.56161 -7.67292,0.68578 l -6.926652,0.13229 -0.132292,9.26042 -0.132292,9.26042 -0.745696,1.51855 c -2.09277,4.26179 -6.183971,6.09339 -10.289969,4.60675 z"
       style="fill:#000000;stroke-width:0.264583" />
  </g>
</svg>
